<?xml version="1.0" encoding="iso-8859-1"?>
<!-- Generator: Adobe Illustrator 19.0.0, SVG Export Plug-In . SVG Version: 6.00 Build 0)  -->
<svg version="1.1" id="Capa_1" xmlns="http://www.w3.org/2000/svg" xmlns:xlink="http://www.w3.org/1999/xlink" x="0px" y="0px"
	 viewBox="0 0 511.999 511.999" style="enable-background:new 0 0 511.999 511.999;" xml:space="preserve">
<rect x="221.784" y="418.472" style="fill:#92E0C0;" width="34.205" height="51.307"/>
<circle style="fill:#FFFFFF;" cx="238.886" cy="213.245" r="171.023"/>
<g>
	<path style="fill:#ABFFDB;" d="M276.01,319.897c-87.263-36.146-128.703-136.189-92.557-223.452
		c8.396-20.27,20.352-37.942,34.682-52.87C158.982,50.87,105.319,88.803,80.884,147.797
		c-36.146,87.263,5.293,187.306,92.556,223.452c66.993,27.749,141.406,9.646,188.768-39.687
		C333.864,335.056,304.278,331.607,276.01,319.897z"/>
	<polygon style="fill:#ABFFDB;" points="332.951,503.983 144.826,503.983 161.928,469.778 315.848,469.778 	"/>
</g>
<g>
	<path style="fill:#FFC850;" d="M396.892,278.693c7.504-18.116,11.483-36.773,12.583-55.304l-10.763-3.576
		c-3.292-1.167-6.856-1.335-10.243-0.48l-4.93,1.244c-6.408,1.617-13.175-0.603-17.379-5.701l-8.757-10.621
		c-4.08-4.948-9.429-8.694-15.473-10.839l-12.823-4.548c-6.818-2.419-14.423-0.441-19.201,4.991l-8.731,9.929
		c-2.861,3.254-5.076,7.025-6.525,11.109c-3.584,10.105-2.201,21.307,3.733,30.237l0.61,0.919
		c4.079,6.139,10.039,10.788,16.985,13.252l0.416,0.148c9.21,3.267,14.028,13.38,10.762,22.59l-6.62,18.665
		c-2.137,6.022-3.027,12.415-2.618,18.792l1.502,23.4c0.348,5.432,5.373,11.556,10.384,15.046
		C358.842,339.733,382.776,312.771,396.892,278.693z"/>
	<path style="fill:#FFC850;" d="M409.204,198.786c-2.195-25.606-10.194-50.269-23.124-72.257l-13.487,5.526
		c-1.78,0.848-3.151,2.369-3.811,4.227l-4.188,11.809c-1.433,4.043-4.415,7.35-8.286,9.195c-2.267,1.08-4.753,1.617-7.263,1.569
		l-12.31-1.029c-5.339-0.446-10.308,2.762-12.1,7.813l-2.874,8.106c-2.177,6.14,1.035,12.882,7.174,15.06l9.539,3.383
		c4.348,1.542,9.197,0.407,12.409-2.904l11.026-11.367L409.204,198.786z"/>
</g>
<path style="fill:#9BF57D;" d="M362.188,331.564c-14.296,1.76-28.908,1.742-43.509-0.199l0.74,11.531
	c0.346,5.402,5.322,11.481,10.305,14.979c0.547-0.344,1.113-0.656,1.656-1.006c1.674-1.075,3.302-2.225,4.94-3.36
	c1.954-1.356,3.911-2.705,5.811-4.145c1.231-0.93,2.419-1.92,3.627-2.883c2.243-1.797,4.479-3.603,6.635-5.518
	c0.724-0.639,1.414-1.318,2.127-1.971c2.558-2.349,5.085-4.739,7.506-7.255C362.08,331.683,362.131,331.622,362.188,331.564z"/>
<g>
	<path style="fill:#FFC850;" d="M247.742,256.154l-1.586-3.329c-2.018-4.236-5.635-7.497-10.058-9.065l-2.505-0.889
		c-2.948-1.045-5.362-3.219-6.705-6.044l-10.737-22.539c-3.364-7.06-9.394-12.495-16.767-15.11l-23.531-8.346l-14.465,18.54
		l-4.971,14.017c-1.565,4.411-0.961,9.304,1.629,13.203l12.347,18.581c2.591,3.899,3.194,8.791,1.63,13.203l-6.628,18.685
		c-2.64,7.445-3.758,15.345-3.287,23.23l1.283,21.483c0.169,2.829,1.983,5.296,4.635,6.3l0.043,0.016
		c3.772,1.429,7.982-0.522,9.33-4.324l7.4-20.866l14.223-3.589c4.125-1.041,7.737-3.533,10.175-7.019l8.59-12.291
		c1.97-2.524,5.332-3.504,8.349-2.434l3.494,1.239c3.216,1.141,6.796-0.053,8.682-2.897l8.204-12.363
		C249.947,268.366,250.414,261.765,247.742,256.154z"/>
	<path style="fill:#FFC850;" d="M257.042,124.946l8.384,2.974c2.051,0.728,4.335,0.267,5.944-1.198l2.662-2.425
		c2.25-2.049,2.571-5.475,0.741-7.907l-10.313-13.703c-2.618-3.478,0.146-8.41,4.48-7.994l19.255,1.851l2.485-7.009L250.32,75.22
		l-31.136-0.432l3.344-9.425l-6.742-2.39c-5.897-2.092-12.383-1.755-18.031,0.935l-4.842,2.307
		c-2.941,1.401-6.459,0.153-7.861-2.788l-5.148-10.51c-23.874,8.789-45.728,22.792-63.743,41.363l-0.248,32.942
		c-0.122,6.401,3.865,12.161,9.899,14.301l3.914,1.388l0.977,7.914c0.669,5.418,3.803,10.225,8.489,13.024l13.36,7.976l3.354-6.842
		c3.268-9.21,13.38-14.028,22.59-10.762l11.359,4.029l62.68-33.073C253.947,124.507,255.568,124.423,257.042,124.946z"/>
</g>
<g>
	<path style="fill:#FEA82F;" d="M125.812,141.524l3.914,1.388l0.977,7.914c0.669,5.418,3.803,10.225,8.489,13.024l13.36,7.976
		l3.354-6.842c2.361-6.655,8.307-10.961,14.895-11.637c0.951-19.056,4.931-38.265,12.65-56.902
		c5.151-12.434,11.773-23.766,19.328-34.211c-1.718,0.383-3.409,0.905-5.024,1.674l-4.842,2.307
		c-2.941,1.401-6.459,0.153-7.861-2.788l-5.148-10.508c-0.016,0.005-0.031,0.012-0.048,0.017
		c-23.853,8.792-45.693,22.786-63.695,41.345l-0.248,32.942C115.791,133.624,119.778,139.385,125.812,141.524z"/>
	<path style="fill:#FEA82F;" d="M173.515,193.829l-12.128,15.544l-4.971,14.017c-1.565,4.411-0.961,9.304,1.629,13.203
		l12.347,18.581c2.591,3.899,3.194,8.791,1.63,13.203l-6.628,18.685c-2.64,7.445-3.758,15.345-3.287,23.23l1.283,21.483
		c0.169,2.829,1.983,5.296,4.635,6.3l0.043,0.016c3.772,1.429,7.982-0.522,9.33-4.324l7.4-20.866l14.223-3.589
		c4.125-1.041,7.737-3.533,10.175-7.019l8.59-12.291c1.852-2.374,4.933-3.315,7.804-2.535
		C198.483,262.443,180.334,229.507,173.515,193.829z"/>
</g>
<path style="fill:#474D54;" d="M435.899,131.64c-20.775-50.156-58.989-89.725-108.087-112.2l3.46-8.353
	c1.694-4.091-0.248-8.78-4.34-10.474c-4.089-1.694-8.779,0.249-10.474,4.34l-16.555,39.975
	c-42.146-15.328-87.833-14.365-129.53,2.906c-44.183,18.302-78.595,52.712-96.895,96.895s-18.302,92.848,0,137.031
	c17.274,41.704,48.907,74.695,89.558,93.656l-10.086,24.355c-0.001,0.003-0.003,0.006-0.005,0.011s-0.002,0.007-0.004,0.011
	l-6.468,15.618c-1.694,4.091,0.248,8.78,4.34,10.474c1.003,0.416,2.042,0.612,3.065,0.612c3.146,0,6.131-1.864,7.41-4.951
	l3.467-8.372c15.998,5.948,32.432,9.927,49.016,11.918v36.669h-46.557c-6.316,0-11.994,3.509-14.818,9.158l-14.739,29.478
	c-1.243,2.485-1.111,5.436,0.351,7.8s4.041,3.802,6.82,3.802h188.125c2.778,0,5.358-1.439,6.82-3.802s1.594-5.315,0.351-7.8
	l-14.739-29.479c-2.825-5.648-8.503-9.157-14.818-9.157h-46.557v-36.669c19.176-2.303,38.155-7.243,56.486-14.836
	c52.624-21.797,93.609-62.782,115.407-115.407C457.697,242.226,457.697,184.264,435.899,131.64z M316.153,356.704
	c-19.243,10.266-40.043,16.17-61.85,18.896c-26.425,2.542-53.28-1.603-77.794-11.757c-40.226-16.662-71.556-47.992-88.218-88.218
	c-22.087-53.323-13.807-116.024,21.483-161.773c25.268-32.757,63.415-55.297,104.299-61.624
	c67.964-10.519,137.817,24.803,169.399,85.869c11.589,22.409,17.999,47.506,18.382,72.741c0.093,6.147-0.173,12.272-0.783,18.344
	c-2.382,23.697-10.055,46.798-22.177,67.29c-13.114,22.171-31.469,41.055-53.287,54.752
	C322.499,353.175,319.347,355,316.153,356.704z M310.563,477.796c0.204,0,0.388,0.113,0.478,0.295l8.938,17.876H157.797
	l8.937-17.876c0.09-0.178,0.277-0.295,0.478-0.295H310.563z M229.801,461.763v-35.365c3.027,0.131,6.056,0.208,9.086,0.208
	s6.058-0.077,9.086-0.208v35.365H229.801z M421.086,288.715c-20.158,48.667-58.062,86.571-106.73,106.73
	c-46.19,19.133-96.823,20.093-143.466,2.908l6.957-16.799c19.826,7.214,40.429,10.83,61.04,10.829
	c23.209-0.001,46.426-4.576,68.515-13.726c44.183-18.302,78.594-52.712,96.895-96.895c18.3-44.183,18.302-92.848,0-137.031
	c-17.278-41.712-48.92-74.708-89.583-93.668l6.957-16.799c45.144,20.828,80.278,57.315,99.413,103.514
	C441.245,186.443,441.244,240.047,421.086,288.715z"/>
<path style="fill:#FFC850;" d="M341.501,144.302c2.051,0,4.103-0.782,5.668-2.348l8.551-8.551c3.131-3.131,3.131-8.206,0-11.337
	s-8.207-3.131-11.337,0l-8.551,8.551c-3.131,3.131-3.131,8.206,0,11.337C337.398,143.519,339.449,144.302,341.501,144.302z"/>
<g>
</g>
<g>
</g>
<g>
</g>
<g>
</g>
<g>
</g>
<g>
</g>
<g>
</g>
<g>
</g>
<g>
</g>
<g>
</g>
<g>
</g>
<g>
</g>
<g>
</g>
<g>
</g>
<g>
</g>
</svg>
