<?xml version="1.0" encoding="iso-8859-1"?>
<!-- Generator: Adobe Illustrator 19.0.0, SVG Export Plug-In . SVG Version: 6.00 Build 0)  -->
<svg version="1.1" id="Capa_1" xmlns="http://www.w3.org/2000/svg" xmlns:xlink="http://www.w3.org/1999/xlink" x="0px" y="0px"
	 viewBox="0 0 496 496" style="enable-background:new 0 0 496 496;" xml:space="preserve">
<g>
	<rect x="368" y="376" style="fill:#F0BC5E;" width="96" height="48"/>
	<rect x="32" y="376" style="fill:#F0BC5E;" width="96" height="48"/>
	<rect x="128" y="360" style="fill:#F0BC5E;" width="240" height="16"/>
</g>
<path d="M256,112h-16V0h112v72h-96V112z M256,56h80V16h-80V56z"/>
<rect x="392" y="376" width="16" height="16"/>
<rect x="424" y="376" width="16" height="16"/>
<rect x="288" y="360" width="16" height="16"/>
<rect x="320" y="360" width="16" height="16"/>
<rect x="160" y="360" width="16" height="16"/>
<rect x="192" y="360" width="16" height="16"/>
<rect x="392" y="408" width="16" height="16"/>
<rect x="424" y="408" width="16" height="16"/>
<rect x="88" y="376" width="16" height="16"/>
<rect x="56" y="376" width="16" height="16"/>
<rect x="88" y="408" width="16" height="16"/>
<rect x="56" y="408" width="16" height="16"/>
<path d="M296,496h-96v-88h96V496z M216,480h64v-56h-64V480z"/>
<rect x="240" y="416" width="16" height="72"/>
<path d="M489.376,326.648L434.96,280H376v-32h-16v232H136V248h-16v32H61.04L6.616,326.648C2.416,330.256,0,335.504,0,341.04
	C0,351.496,8.504,360,18.96,360H24v136h96h8h240h8h96V360h5.04c10.456,0,18.96-8.504,18.96-18.96
	C496,335.504,493.584,330.256,489.376,326.648z M40,480V360h64v-16H18.96c-1.632,0-2.96-1.328-2.96-2.96
	c0-0.856,0.376-1.68,1.032-2.248L66.96,296H120v184H40z M477.04,344H392v16h64v120h-80V296h53.04l49.92,42.792
	c0.664,0.568,1.04,1.384,1.04,2.248C480,342.672,478.672,344,477.04,344z"/>
<path d="M224,392h48v-48h-48V392z M240,360h16v16h-16V360z"/>
<path d="M248,328c35.288,0,64-28.712,64-64s-28.712-64-64-64s-64,28.712-64,64S212.712,328,248,328z M200.72,256
	c3.384-20.056,19.232-35.88,39.28-39.272V224h16v-7.272c20.048,3.392,35.888,19.216,39.28,39.272H288v16h7.28
	c-3.384,20.056-19.224,35.888-39.28,39.28V304h-16v7.28c-20.056-3.384-35.888-19.224-39.28-39.28H208v-16H200.72z"/>
<polygon points="256,240 240,240 240,272 272,272 272,256 256,256 "/>
<path style="fill:#F0BC5E;" d="M383.656,264h-1.848c-5.576,0-11.032-1.936-15.36-5.448L248,162.304l-118.456,96.248
	c-4.312,3.512-9.76,5.448-15.352,5.448h-1.848C98.92,264,88,253.08,88,239.656c0-7.248,3.192-14.072,8.768-18.704l131.96-109.976
	c10.784-9,27.76-9.008,38.536,0.008L399.24,220.952c5.568,4.632,8.76,11.456,8.76,18.704C408,253.08,397.08,264,383.656,264z"/>
<g>
</g>
<g>
</g>
<g>
</g>
<g>
</g>
<g>
</g>
<g>
</g>
<g>
</g>
<g>
</g>
<g>
</g>
<g>
</g>
<g>
</g>
<g>
</g>
<g>
</g>
<g>
</g>
<g>
</g>
</svg>
