<svg width="24" height="23" viewBox="0 0 24 23" fill="none" xmlns="http://www.w3.org/2000/svg">
<path d="M10.0892 2.18362C10.6699 0.304267 13.3301 0.304267 13.9108 2.18362L15.1055 6.04946C15.3644 6.88748 16.1392 7.45898 17.0163 7.45898H21.0874C23.0005 7.45898 23.8218 9.88694 22.3015 11.0483L18.8381 13.6941C18.172 14.2029 17.8939 15.0731 18.1414 15.8739L19.4231 20.0216C19.998 21.8821 17.8455 23.3835 16.2981 22.2014L13.2141 19.8455C12.4973 19.2979 11.5027 19.2979 10.7859 19.8455L7.70188 22.2014C6.1545 23.3835 4.002 21.8821 4.5769 20.0216L5.85862 15.8739C6.10609 15.0731 5.82796 14.2029 5.1619 13.6941L1.69847 11.0483C0.178245 9.88694 0.999524 7.45898 2.91259 7.45898H6.9837C7.86082 7.45898 8.63558 6.88748 8.89455 6.04946L10.0892 2.18362Z" fill="#FCD51A"/>
</svg>
