<svg width="24" height="24" viewBox="0 0 24 24" fill="none" xmlns="http://www.w3.org/2000/svg">
<path d="M12 20L11.14 19.14C9.96 17.96 9.97 16.04 11.16 14.88L12 14.06C11.61 14.02 11.32 14 11 14C8.33 14 3 15.34 3 18V20H12ZM11 12C13.21 12 15 10.21 15 8C15 5.79 13.21 4 11 4C8.79 4 7 5.79 7 8C7 10.21 8.79 12 11 12Z" fill="#5D5D5D"/>
<path d="M16.1798 19.7802C15.7898 20.1702 15.1498 20.1702 14.7598 19.7802L12.6898 17.6902C12.3098 17.3002 12.3098 16.6802 12.6898 16.3002L12.6998 16.2902C13.0898 15.9002 13.7198 15.9002 14.0998 16.2902L15.4698 17.6602L19.8998 13.2002C20.2898 12.8102 20.9198 12.8102 21.3098 13.2002L21.3198 13.2102C21.6998 13.6002 21.6998 14.2202 21.3198 14.6002L16.1798 19.7802Z" fill="#5D5D5D"/>
</svg>
